<svg xmlns="http://www.w3.org/2000/svg" width="272" height="48" viewBox="0 0 272 48" fill="none">
  <defs>
    <linearGradient id="ag-g1-light" x1="0" y1="0" x2="1" y2="1">
      <stop offset="0%" stop-color="#FF6B6B" />
      <stop offset="100%" stop-color="#FFB347" />
    </linearGradient>
    <linearGradient id="ag-g2-light" x1="0" y1="0" x2="1" y2="1">
      <stop offset="0%" stop-color="#FFD93D" />
      <stop offset="100%" stop-color="#FF6B6B" />
    </linearGradient>
  </defs>
  <g transform="translate(2,2)">
    <path d="M 2 18 Q 2 9 12 9 L 32 9 Q 42 9 42 18 L 42 28 Q 42 33 37 35 L 30 39 Q 26 41 22 41 L 20 41 Q 16 41 12 39 L 5 35 Q 2 33 2 28 Z" fill="none" stroke="url(#ag-g1-light)" stroke-width="2.2" stroke-linejoin="round" />
    <rect x="6" y="20" width="11" height="4" rx="2" fill="url(#ag-g1-light)" />
    <rect x="9.5" y="16.5" width="4" height="11" rx="2" fill="url(#ag-g1-light)" />
    <circle cx="32" cy="16.5" r="2.4" fill="url(#ag-g2-light)" />
    <circle cx="36.5" cy="21" r="2.4" fill="url(#ag-g1-light)" />
    <circle cx="32" cy="25.5" r="2.4" fill="url(#ag-g1-light)" opacity="0.6" />
    <polygon points="21,1 22.2,4.8 26,4.8 23.1,7 24.3,10.8 21,8.5 17.7,10.8 18.9,7 16,4.8 19.8,4.8" fill="url(#ag-g2-light)" />
  </g>
  <text x="56" y="30" font-family="Nunito, Arial, sans-serif" font-size="26" font-weight="900" letter-spacing="-0.6">
    <tspan fill="#0A1628">Aprende</tspan>
    <tspan fill="#FF6B6B">Game</tspan>
  </text>
</svg>
